<svg xmlns="http://www.w3.org/2000/svg" viewBox="0 0 32 32">
  <rect width="32" height="32" rx="7" fill="#0d1b2a"/>
  <path d="M16 5C16 5 9 13 9 18C9 21.866 12.134 25 16 25C19.866 25 23 21.866 23 18C23 13 16 5 16 5Z"
    fill="#26C6DA" fill-opacity="0.2" stroke="#26C6DA" stroke-width="1.6"/>
  <path d="M16 22V14" stroke="#43A047" stroke-width="1.8" stroke-linecap="round"/>
  <path d="M16 20C16 20 12.5 18 12.5 14.5C12.5 14.5 16 15.5 16 20Z" fill="#43A047"/>
  <path d="M16 17C16 17 19.5 15 19.5 11.5C19.5 11.5 16 12.5 16 17Z" fill="#43A047"/>
</svg>
